# xmcd CD database file
#
# Track frame offsets:
#	150
#	13511
#	22850
#	34421
#	48087
#	58020
#	75352
#	96980
#	114341
#	129012
#	141509
#	157492
#	168899
#	181355
#	195405
#
# Disc length: 2787 seconds
#
# Revision: 0
# Processed by: cddbd v1.5.2PL0 Copyright (c) Steve Scherf et al.
# Submitted via: CDex 1.70beta2
#
DISCID=ba0ae10f
DTITLE=Willie Nelson - The Music Of Willie Nelson CD 3
DYEAR=2009
DGENRE=Country
TTITLE0=Good Hearted Women
TTITLE1=Something To Brag About
TTITLE2=Mommas Don't Let Your Babies Grow Up To Be Cowboys
TTITLE3=Heartbreak Hotel
TTITLE4=I Gotta Get Drunk
TTITLE5=Faded Love
TTITLE6=Poncho anf Lefty
TTITLE7=Seven Spanish Angels
TTITLE8=Everything's Beautiful ( In Its Own Way )
TTITLE9=How Do You Feel About Foolin' Around
TTITLE10=Reasons To Quit
TTITLE11=Hello Walls
TTITLE12=I'm Moving On
TTITLE13=Old Friends
TTITLE14=Highway Men
EXTD=YEAR: 2009
EXTT0=
EXTT1=
EXTT2=
EXTT3=
EXTT4=
EXTT5=
EXTT6=
EXTT7=
EXTT8=
EXTT9=
EXTT10=
EXTT11=
EXTT12=
EXTT13=
EXTT14=
PLAYORDER=
